<svg width="512" height="512" xmlns="http://www.w3.org/2000/svg">
 <g>
  <title>background</title>
  <rect x="-1" y="-1" width="514" height="514" id="canvas_background" fill="none"/>
 </g>

 <g>
  <title>Layer 1</title>
  <ellipse fill="#8c726c" stroke-width="null" stroke-opacity="null" cx="255.99999" cy="256" id="svg_6" rx="206.50002" ry="201" stroke="null"/>
  <path d="m305,256c0,27.0625 -21.9375,49 -49,49s-49,-21.9375 -49,-49s21.9375,-49 49,-49s49,21.9375 49,49zm0,0" id="svg_1" fill="#ffffff"/>
  <path d="m370.59375,169.30469c-2.35547,-6.38281 -6.11328,-12.16016 -10.99609,-16.90235c-4.74219,-4.88281 -10.51563,-8.64062 -16.90235,-10.99609c-5.17968,-2.01172 -12.96093,-4.40625 -27.29297,-5.05859c-15.5039,-0.70703 -20.15234,-0.85938 -59.40234,-0.85938c-39.25391,0 -43.90234,0.14844 -59.40234,0.85547c-14.33203,0.65625 -22.11719,3.05078 -27.29297,5.0625c-6.38672,2.35547 -12.16406,6.11328 -16.90235,10.99609c-4.88281,4.74219 -8.64062,10.51563 -11,16.90235c-2.01171,5.17969 -4.40625,12.96484 -5.05859,27.29687c-0.70703,15.5 -0.85937,20.14844 -0.85937,59.40235c0,39.25 0.15234,43.89843 0.85937,59.40234c0.65234,14.33203 3.04688,22.11328 5.05859,27.29297c2.35938,6.38672 6.11329,12.16016 10.9961,16.90234c4.74219,4.88281 10.51562,8.64063 16.90234,10.9961c5.17969,2.01562 12.96485,4.41015 27.29688,5.0625c15.5,0.70703 20.14453,0.85546 59.39843,0.85546c39.25782,0 43.90625,-0.14843 59.40235,-0.85546c14.33203,-0.65235 22.11719,-3.04688 27.29687,-5.0625c12.82032,-4.94532 22.95313,-15.07813 27.89844,-27.89844c2.01172,-5.17969 4.40625,-12.96094 5.0625,-27.29297c0.70703,-15.50391 0.85547,-20.15234 0.85547,-59.40234c0,-39.25391 -0.14844,-43.90235 -0.85547,-59.40235c-0.65234,-14.33203 -3.04687,-22.11719 -5.0625,-27.29687zm-114.59375,162.17969c-41.69141,0 -75.48828,-33.79297 -75.48828,-75.48438s33.79687,-75.48437 75.48828,-75.48437c41.6875,0 75.48438,33.79296 75.48438,75.48437s-33.79688,75.48438 -75.48438,75.48438zm78.46875,-136.3125c-9.74219,0 -17.64062,-7.89844 -17.64062,-17.64063s7.89843,-17.64062 17.64062,-17.64062s17.64063,7.89843 17.64063,17.64062c-0.00391,9.74219 -7.89844,17.64063 -17.64063,17.64063zm0,0" id="svg_2" fill="#ffffff"/>
  <path d="m256,0c-141.36328,0 -256,114.63672 -256,256s114.63672,256 256,256s256,-114.63672 256,-256s-114.63672,-256 -256,-256zm146.11328,316.60547c-0.71094,15.64844 -3.19922,26.33203 -6.83203,35.68359c-7.63672,19.7461 -23.24609,35.35547 -42.99219,42.99219c-9.34765,3.63281 -20.03515,6.11719 -35.67968,6.83203c-15.67579,0.71485 -20.6836,0.88672 -60.60547,0.88672c-39.92578,0 -44.92969,-0.17187 -60.60938,-0.88672c-15.64453,-0.71484 -26.33203,-3.19922 -35.67969,-6.83203c-9.8125,-3.69141 -18.69531,-9.47656 -26.03906,-16.95703c-7.47656,-7.33984 -13.26172,-16.22656 -16.95312,-26.03516c-3.63282,-9.34765 -6.1211,-20.03515 -6.83203,-35.67968c-0.72266,-15.67969 -0.89063,-20.6875 -0.89063,-60.60938s0.16797,-44.92969 0.88672,-60.60547c0.71094,-15.64844 3.19531,-26.33203 6.82812,-35.68359c3.69141,-9.8086 9.48047,-18.69531 16.96094,-26.03516c7.33985,-7.48047 16.22656,-13.26562 26.03516,-16.95703c9.35156,-3.63281 20.03515,-6.11719 35.68359,-6.83203c15.67578,-0.71484 20.6836,-0.88672 60.60547,-0.88672s44.92969,0.17188 60.60547,0.89063c15.64844,0.71093 26.33203,3.19531 35.68359,6.82421c9.8086,3.69141 18.69531,9.48047 26.03906,16.96094c7.47657,7.34375 13.26563,16.22656 16.95313,26.03516c3.63672,9.35156 6.12109,20.03515 6.83594,35.68359c0.71484,15.67578 0.88281,20.6836 0.88281,60.60547s-0.16797,44.92969 -0.88672,60.60547z" id="svg_3" fill="#ffffff"/>
  <path fill="none" stroke="null" stroke-width="null" stroke-opacity="null" fill-opacity="null" id="svg_5"/>
 </g>
</svg>